<?xml version="1.0" encoding="UTF-8"?>
<svg width="20px" height="20px" viewBox="0 0 20 20" version="1.1" xmlns="http://www.w3.org/2000/svg" xmlns:xlink="http://www.w3.org/1999/xlink">
    <title>Group Copy</title>
    <g id="Kamil-Portfolio" stroke="none" stroke-width="1" fill="none" fill-rule="evenodd">
        <g id="Portfolio-@1440-Copy-8" transform="translate(-1368.000000, -37.000000)">
            <g id="Group-Copy" transform="translate(1368.000000, 37.000000)">
                <polygon id="Path" points="0 0 20 0 20 20 0 20"></polygon>
                <path d="M7.5,15.8333333 C3.91666667,17 3.91666667,13.75 2.5,13.3333333 M12.5,17.5 L12.5,14.5833333 C12.5,13.75 12.5833333,13.4166667 12.0833333,12.9166667 C14.4166667,12.6666667 16.6666667,11.75 16.6666667,7.91666667 C16.6656521,6.92080347 16.2771227,5.96442345 15.5833333,5.25 C15.9087224,4.38497202 15.8787657,3.42635648 15.5,2.58333333 C15.5,2.58333333 14.5833333,2.33333333 12.5833333,3.66666667 C10.8893649,3.22548979 9.11063513,3.22548979 7.41666667,3.66666667 C5.41666667,2.33333333 4.5,2.58333333 4.5,2.58333333 C4.12123431,3.42635648 4.09127757,4.38497202 4.41666667,5.25 C3.72287731,5.96442345 3.33434793,6.92080347 3.33333333,7.91666667 C3.33333333,11.75 5.58333333,12.6666667 7.91666667,12.9166667 C7.41666667,13.4166667 7.41666667,13.9166667 7.5,14.5833333 L7.5,17.5" id="Shape" stroke="#0D0E0F" stroke-width="1.25" stroke-linecap="round" stroke-linejoin="round"></path>
            </g>
        </g>
    </g>
</svg>