<?xml version="1.0" encoding="UTF-8"?>
<svg width="46px" height="24px" viewBox="0 0 46 24" version="1.1" xmlns="http://www.w3.org/2000/svg" xmlns:xlink="http://www.w3.org/1999/xlink">
    <title>KK</title>
    <g id="Kamil-Portfolio" stroke="none" stroke-width="1" fill="none" fill-rule="evenodd">
        <g id="Portfolio-@1440-Copy-8" transform="translate(-54.000000, -35.000000)" fill="#0D0E0F" fill-rule="nonzero">
            <path d="M61.7614545,59 L61.7614545,49.440678 L61.8283636,49.440678 L68.1512727,59 L77.92,59 L68.5861818,45.9830508 L77.4850909,35 L68.1178182,35 L61.7949091,43.8474576 L61.728,43.8474576 L61.728,35 L54,35 L54,59 L61.7614545,59 Z M83.8414545,59 L83.8414545,49.440678 L83.9083636,49.440678 L90.2312727,59 L100,59 L90.6661818,45.9830508 L99.5650909,35 L90.1978182,35 L83.8749091,43.8474576 L83.808,43.8474576 L83.808,35 L76.08,35 L76.08,59 L83.8414545,59 Z" id="KK"></path>
        </g>
    </g>
</svg>